<svg width="64" height="64" viewBox="0 0 64 64" fill="none" xmlns="http://www.w3.org/2000/svg">
<rect x="22" y="16" width="32" height="39" rx="10" fill="white" fill-opacity="0.8"/>
<rect x="22" y="16" width="32" height="39" rx="10" stroke="black" stroke-width="3"/>
<rect x="20.5" y="14.5" width="35" height="42" rx="11.5" stroke="white" stroke-opacity="0.8" stroke-width="3"/>
<rect x="10.5" y="4.5" width="35" height="42" rx="11.5" fill="white"/>
<rect x="12" y="6" width="32" height="39" rx="10" stroke="black" stroke-width="3"/>
<path d="M24.4998 33.3419L18.2419 27.084C17.9194 26.7615 17.9194 26.239 18.2419 25.9165L19.9165 24.2419C20.239 23.9194 20.7615 23.9194 21.084 24.2419L27.3419 30.4998C27.6644 30.8223 27.6644 31.3448 27.3419 31.6673L25.6673 33.3419C25.3448 33.664 24.8223 33.664 24.4998 33.3419Z" fill="#272727"/>
<path d="M22.8252 30.4998L34.0831 19.2419C34.4056 18.9194 34.9281 18.9194 35.2506 19.2419L36.9252 20.9165C37.2477 21.239 37.2477 21.7615 36.9252 22.084L25.6673 33.3419C25.3448 33.6644 24.8223 33.6644 24.4998 33.3419L22.8252 31.6673C22.5031 31.3448 22.5031 30.8223 22.8252 30.4998V30.4998Z" fill="black"/>
<rect x="10.5" y="4.5" width="35" height="42" rx="11.5" stroke="white" stroke-width="3"/>
</svg>
